<svg xmlns="http://www.w3.org/2000/svg" fill="none" stroke="currentColor" viewBox="0 0 26 32">
  <path stroke-linecap="round" stroke-linejoin="round" stroke-width="2.6"
    d="M23 2H3.4C2.63 2 2 2.63 2 3.4v25.2c0 .77.63 1.4 1.4 1.4H23c.77 0 1.4-.63 1.4-1.4V3.4c0-.77-.63-1.4-1.4-1.4Z" />
  <path stroke-width="2.6" d="M13.2 13.2a3.5 3.5 0 1 0 0-7 3.5 3.5 0 0 0 0 7Z" />
  <path fill="currentColor" stroke-width=".7"
    d="M6.2 5.15a1.05 1.05 0 1 1 0 2.1 1.05 1.05 0 0 1 0-2.1ZM6.2 24.75a1.05 1.05 0 1 1 0 2.1 1.05 1.05 0 0 1 0-2.1ZM20.2 5.15a1.05 1.05 0 1 1 0 2.1 1.05 1.05 0 0 1 0-2.1ZM20.2 24.75a1.05 1.05 0 1 1 0 2.1 1.05 1.05 0 0 1 0-2.1Z" />
  <path stroke-width="2.6" d="M13.2 25.8a4.2 4.2 0 1 0 0-8.4 4.2 4.2 0 0 0 0 8.4Z" />
</svg>