<svg xmlns="http://www.w3.org/2000/svg" fill="currentColor" viewBox="0 0 40 35">
  <path
    d="M18.5 0a1.42 1.42 0 0 1 1.42 1.42v31.31a1.42 1.42 0 0 1-2.84 0V1.43A1.42 1.42 0 0 1 18.5 0Zm-5.7 5.7a1.42 1.42 0 0 1 1.43 1.42v19.92a1.42 1.42 0 0 1-2.85 0V7.12a1.42 1.42 0 0 1 1.43-1.43Zm11.4 0a1.42 1.42 0 0 1 1.42 1.42v19.92a1.42 1.42 0 1 1-2.85 0V7.12a1.42 1.42 0 0 1 1.42-1.43ZM7.11 9.95a1.42 1.42 0 0 1 1.42 1.42v11.39a1.42 1.42 0 1 1-2.85 0V11.38a1.42 1.42 0 0 1 1.43-1.42Zm22.76 0a1.42 1.42 0 0 1 1.43 1.42v11.39a1.42 1.42 0 1 1-2.85 0V11.38a1.42 1.42 0 0 1 1.42-1.42ZM1.42 12.81a1.42 1.42 0 0 1 1.43 1.42v5.7a1.42 1.42 0 1 1-2.85 0v-5.7a1.42 1.42 0 0 1 1.42-1.42Zm34.16 0A1.42 1.42 0 0 1 37 14.23v5.7a1.42 1.42 0 1 1-2.85 0v-5.7a1.42 1.42 0 0 1 1.43-1.42Z" />
</svg>