<svg xmlns="http://www.w3.org/2000/svg" fill="currentColor" stroke="currentColor" viewBox="0 0 31 25">
  <path stroke="none"
    d="M2.58 18.75h3.49l7.42 5.14a1.27 1.27 0 0 0 1.83-.43c.12-.2.18-.45.18-.69V1.34a1.31 1.31 0 0 0-.68-1.18 1.25 1.25 0 0 0-1.33.06L6.07 5.36H2.58A2.64 2.64 0 0 0 0 8.04v8.03a2.64 2.64 0 0 0 2.58 2.68Zm0-10.71h3.88L6.58 8c.17-.02.34-.07.49-.15l.1-.05 5.75-3.97v16.43L7.18 16.3l-.11-.05a1.23 1.23 0 0 0-.5-.15c-.04 0-.07-.03-.11-.03H2.58V8.04Z" />
  <path stroke-width="1.77" stroke-linecap="round" d="M21.96 19.38V4.73M18.97 15.93V8.18" />
</svg>